<svg width="200" height="80" viewBox="0 0 200 80" fill="none" xmlns="http://www.w3.org/2000/svg">
  <defs>
    <linearGradient id="signatureGradient" x1="0%" y1="0%" x2="100%" y2="0%">
      <stop offset="0%" style="stop-color:#1e3a8a;stop-opacity:1" />
      <stop offset="100%" style="stop-color:#6b21a8;stop-opacity:1" />
    </linearGradient>
  </defs>

  <!-- Assinatura estilizada "Paulo Ximana" em formato cursivo/manuscrito -->
  <g fill="none" stroke="url(#signatureGradient)" stroke-width="2.5" stroke-linecap="round" stroke-linejoin="round">
    <!-- P maiúsculo -->
    <path d="M 10 20 Q 10 15 15 15 Q 25 15 25 25 Q 25 35 15 35 L 10 35 L 10 50"/>
    
    <!-- a -->
    <path d="M 30 35 Q 30 30 35 30 Q 42 30 42 35 L 42 45 Q 42 45 35 45 Q 30 45 30 40"/>
    
    <!-- u -->
    <path d="M 48 30 L 48 42 Q 48 45 52 45 Q 55 45 55 42 L 55 30"/>
    
    <!-- l -->
    <path d="M 60 15 L 60 45"/>
    
    <!-- o -->
    <ellipse cx="72" cy="37.5" rx="6" ry="7.5"/>
    
    <!-- Traço conectando ao sobrenome -->
    <path d="M 82 40 Q 90 38 95 40"/>
    
    <!-- X maiúsculo -->
    <path d="M 95 30 L 110 50 M 110 30 L 95 50"/>
    
    <!-- i -->
    <path d="M 115 35 L 115 45"/>
    <circle cx="115" cy="30" r="1.5" fill="url(#signatureGradient)"/>
    
    <!-- m -->
    <path d="M 120 45 L 120 35 Q 120 32 123 32 Q 126 32 126 35 L 126 45 M 126 35 Q 126 32 129 32 Q 132 32 132 35 L 132 45"/>
    
    <!-- a -->
    <path d="M 137 35 Q 137 30 142 30 Q 149 30 149 35 L 149 45 Q 149 45 142 45 Q 137 45 137 40"/>
    
    <!-- n -->
    <path d="M 154 45 L 154 35 Q 154 32 157 32 Q 160 32 160 35 L 160 45"/>
    
    <!-- a -->
    <path d="M 165 35 Q 165 30 170 30 Q 177 30 177 35 L 177 45 Q 177 45 170 45 Q 165 45 165 40"/>
  </g>
  
  <!-- Sublinhado decorativo -->
  <path d="M 10 58 Q 95 52 180 58" fill="none" stroke="url(#signatureGradient)" stroke-width="1.5" opacity="0.6"/>
  
  <!-- Ponto decorativo final -->
  <circle cx="185" cy="58" r="2" fill="#10b981"/>
</svg>
