<svg width="32" height="32" viewBox="0 0 32 32" fill="none" xmlns="http://www.w3.org/2000/svg">
  <defs>
    <linearGradient id="faviconGradient" x1="0%" y1="0%" x2="100%" y2="100%">
      <stop offset="0%" style="stop-color:#28a745;stop-opacity:1" />
      <stop offset="100%" style="stop-color:#20c997;stop-opacity:1" />
    </linearGradient>
  </defs>

  <!-- Fundo -->
  <rect width="32" height="32" rx="6" fill="url(#faviconGradient)"/>

  <!-- Símbolo PX simplificado -->
  <g>
    <!-- P estilizado -->
    <path d="M 8 8 L 8 24 L 10 24 L 10 18 L 14 18 C 16.5 18 18 16.5 18 14 C 18 11.5 16.5 10 14 10 L 10 10 L 10 12 L 13.5 12 C 15 12 15.5 12.5 15.5 14 C 15.5 15.5 15 16 13.5 16 L 10 16 L 10 10 Z" fill="white"/>
   
    <!-- X estilizado -->
    <path d="M 17 8 L 20 14 L 17 20 L 19 21 L 22 16 L 25 21 L 27 20 L 24 14 L 27 8 L 25 7 L 22 12 L 19 7 Z" fill="white" opacity="0.9"/>
  </g>

  <!-- Ponto verde -->
  <circle cx="26" cy="10" r="2" fill="#10b981"/>
</svg>

