<svg width="60" height="60" viewBox="0 0 60 60" fill="none" xmlns="http://www.w3.org/2000/svg">
  <defs>
    <linearGradient id="iconGradient" x1="0%" y1="0%" x2="100%" y2="100%">
      <stop offset="0%" style="stop-color:#2563eb;stop-opacity:1" />
      <stop offset="50%" style="stop-color:#7c3aed;stop-opacity:1" />
      <stop offset="100%" style="stop-color:#8b5cf6;stop-opacity:1" />
    </linearGradient>
  </defs>

  <!-- Círculo de fundo -->
  <circle cx="30" cy="30" r="28" fill="url(#iconGradient)"/>
  
  <!-- Monograma PX em branco -->
  <g>
    <!-- P -->
    <path d="M 18 16 L 18 44 L 22 44 L 22 32 L 28 32 C 32 32 34 29 34 25 C 34 21 32 18 28 18 L 22 18 L 22 22 L 27 22 C 29 22 30 23 30 25 C 30 27 29 28 27 28 L 22 28 L 22 18 Z" fill="white"/>
    
    <!-- X -->
    <path d="M 32 16 L 38 28 L 32 40 L 36 42 L 41 32 L 46 42 L 50 40 L 44 28 L 50 16 L 46 14 L 41 24 L 36 14 Z" fill="white" opacity="0.95"/>
  </g>
  
  <!-- Ponto de destaque -->
  <circle cx="48" cy="18" r="3" fill="#10b981"/>
</svg>
